<mxfile host="app.diagrams.net" modified="2023-03-26T17:01:00.677Z" agent="Mozilla/5.0 (X11; Linux x86_64; rv:102.0) Gecko/20100101 Firefox/102.0" etag="Jhm7rjybBANiWxDpv802" version="21.1.1" type="device">
  <diagram name="PÃ¡gina-1" id="OrqeLabSoHrJaveR5Bbe">
    <mxGraphModel dx="266" dy="147" grid="1" gridSize="10" guides="1" tooltips="1" connect="1" arrows="1" fold="1" page="1" pageScale="1" pageWidth="1169" pageHeight="827" math="1" shadow="0">
      <root>
        <mxCell id="0" />
        <mxCell id="1" parent="0" />
        <mxCell id="O8oyMUkmjf1qL9M-a0hE-2" value="" style="ellipse;whiteSpace=wrap;html=1;aspect=fixed;fillColor=#dae8fc;strokeColor=#6c8ebf;" parent="1" vertex="1">
          <mxGeometry x="525" y="370" width="10" height="10" as="geometry" />
        </mxCell>
        <mxCell id="O8oyMUkmjf1qL9M-a0hE-3" value="" style="ellipse;whiteSpace=wrap;html=1;aspect=fixed;fillColor=#dae8fc;strokeColor=#6c8ebf;" parent="1" vertex="1">
          <mxGeometry x="485" y="409" width="10" height="10" as="geometry" />
        </mxCell>
        <mxCell id="O8oyMUkmjf1qL9M-a0hE-4" value="" style="ellipse;whiteSpace=wrap;html=1;aspect=fixed;fillColor=#dae8fc;strokeColor=#6c8ebf;" parent="1" vertex="1">
          <mxGeometry x="505" y="390" width="10" height="10" as="geometry" />
        </mxCell>
        <mxCell id="O8oyMUkmjf1qL9M-a0hE-5" value="" style="ellipse;whiteSpace=wrap;html=1;aspect=fixed;fillColor=#dae8fc;strokeColor=#6c8ebf;" parent="1" vertex="1">
          <mxGeometry x="565" y="383" width="10" height="10" as="geometry" />
        </mxCell>
        <mxCell id="O8oyMUkmjf1qL9M-a0hE-6" value="" style="ellipse;whiteSpace=wrap;html=1;aspect=fixed;fillColor=#dae8fc;strokeColor=#6c8ebf;" parent="1" vertex="1">
          <mxGeometry x="575" y="400" width="10" height="10" as="geometry" />
        </mxCell>
        <mxCell id="O8oyMUkmjf1qL9M-a0hE-7" value="" style="ellipse;whiteSpace=wrap;html=1;aspect=fixed;fillColor=#dae8fc;strokeColor=#6c8ebf;" parent="1" vertex="1">
          <mxGeometry x="545" y="403" width="10" height="10" as="geometry" />
        </mxCell>
        <mxCell id="O8oyMUkmjf1qL9M-a0hE-8" value="" style="ellipse;whiteSpace=wrap;html=1;aspect=fixed;fillColor=#dae8fc;strokeColor=#6c8ebf;" parent="1" vertex="1">
          <mxGeometry x="555" y="373" width="10" height="10" as="geometry" />
        </mxCell>
        <mxCell id="O8oyMUkmjf1qL9M-a0hE-9" value="" style="ellipse;whiteSpace=wrap;html=1;aspect=fixed;fillColor=#dae8fc;strokeColor=#6c8ebf;" parent="1" vertex="1">
          <mxGeometry x="515" y="417" width="10" height="10" as="geometry" />
        </mxCell>
        <mxCell id="O8oyMUkmjf1qL9M-a0hE-10" value="" style="ellipse;whiteSpace=wrap;html=1;aspect=fixed;fillColor=#dae8fc;strokeColor=#6c8ebf;" parent="1" vertex="1">
          <mxGeometry x="535" y="424" width="10" height="10" as="geometry" />
        </mxCell>
        <mxCell id="O8oyMUkmjf1qL9M-a0hE-11" value="" style="ellipse;whiteSpace=wrap;html=1;aspect=fixed;fillColor=#dae8fc;strokeColor=#6c8ebf;" parent="1" vertex="1">
          <mxGeometry x="575" y="417" width="10" height="10" as="geometry" />
        </mxCell>
        <mxCell id="O8oyMUkmjf1qL9M-a0hE-12" value="" style="ellipse;whiteSpace=wrap;html=1;aspect=fixed;fillColor=#dae8fc;strokeColor=#6c8ebf;" parent="1" vertex="1">
          <mxGeometry x="495" y="363" width="10" height="10" as="geometry" />
        </mxCell>
        <mxCell id="O8oyMUkmjf1qL9M-a0hE-13" value="" style="ellipse;whiteSpace=wrap;html=1;aspect=fixed;fillColor=#dae8fc;strokeColor=#6c8ebf;" parent="1" vertex="1">
          <mxGeometry x="535" y="350" width="10" height="10" as="geometry" />
        </mxCell>
        <mxCell id="O8oyMUkmjf1qL9M-a0hE-15" value="" style="ellipse;whiteSpace=wrap;html=1;aspect=fixed;fillColor=#d5e8d4;strokeColor=#82b366;" parent="1" vertex="1">
          <mxGeometry x="600" y="240" width="10" height="10" as="geometry" />
        </mxCell>
        <mxCell id="O8oyMUkmjf1qL9M-a0hE-17" value="" style="ellipse;whiteSpace=wrap;html=1;aspect=fixed;fillColor=#d5e8d4;strokeColor=#82b366;" parent="1" vertex="1">
          <mxGeometry x="605" y="270" width="10" height="10" as="geometry" />
        </mxCell>
        <mxCell id="O8oyMUkmjf1qL9M-a0hE-19" value="" style="ellipse;whiteSpace=wrap;html=1;aspect=fixed;fillColor=#d5e8d4;strokeColor=#82b366;" parent="1" vertex="1">
          <mxGeometry x="655" y="260" width="10" height="10" as="geometry" />
        </mxCell>
        <mxCell id="O8oyMUkmjf1qL9M-a0hE-20" value="" style="ellipse;whiteSpace=wrap;html=1;aspect=fixed;fillColor=#d5e8d4;strokeColor=#82b366;" parent="1" vertex="1">
          <mxGeometry x="645" y="274" width="10" height="10" as="geometry" />
        </mxCell>
        <mxCell id="O8oyMUkmjf1qL9M-a0hE-21" value="" style="ellipse;whiteSpace=wrap;html=1;aspect=fixed;fillColor=#d5e8d4;strokeColor=#82b366;" parent="1" vertex="1">
          <mxGeometry x="645" y="240" width="10" height="10" as="geometry" />
        </mxCell>
        <mxCell id="O8oyMUkmjf1qL9M-a0hE-22" value="" style="ellipse;whiteSpace=wrap;html=1;aspect=fixed;fillColor=#d5e8d4;strokeColor=#82b366;" parent="1" vertex="1">
          <mxGeometry x="605" y="284" width="10" height="10" as="geometry" />
        </mxCell>
        <mxCell id="O8oyMUkmjf1qL9M-a0hE-23" value="" style="ellipse;whiteSpace=wrap;html=1;aspect=fixed;fillColor=#d5e8d4;strokeColor=#82b366;" parent="1" vertex="1">
          <mxGeometry x="625" y="284" width="10" height="10" as="geometry" />
        </mxCell>
        <mxCell id="O8oyMUkmjf1qL9M-a0hE-24" value="" style="ellipse;whiteSpace=wrap;html=1;aspect=fixed;fillColor=#d5e8d4;strokeColor=#82b366;" parent="1" vertex="1">
          <mxGeometry x="645" y="294" width="10" height="10" as="geometry" />
        </mxCell>
        <mxCell id="O8oyMUkmjf1qL9M-a0hE-25" value="" style="ellipse;whiteSpace=wrap;html=1;aspect=fixed;fillColor=#d5e8d4;strokeColor=#82b366;" parent="1" vertex="1">
          <mxGeometry x="585" y="230" width="10" height="10" as="geometry" />
        </mxCell>
        <mxCell id="O8oyMUkmjf1qL9M-a0hE-26" value="" style="ellipse;whiteSpace=wrap;html=1;aspect=fixed;fillColor=#d5e8d4;strokeColor=#82b366;" parent="1" vertex="1">
          <mxGeometry x="615" y="230" width="10" height="10" as="geometry" />
        </mxCell>
        <mxCell id="O8oyMUkmjf1qL9M-a0hE-42" value="" style="ellipse;whiteSpace=wrap;html=1;aspect=fixed;fillColor=#ffe6cc;strokeColor=#d79b00;" parent="1" vertex="1">
          <mxGeometry x="695" y="368" width="10" height="10" as="geometry" />
        </mxCell>
        <mxCell id="O8oyMUkmjf1qL9M-a0hE-43" value="" style="ellipse;whiteSpace=wrap;html=1;aspect=fixed;fillColor=#ffe6cc;strokeColor=#d79b00;" parent="1" vertex="1">
          <mxGeometry x="720" y="370" width="10" height="10" as="geometry" />
        </mxCell>
        <mxCell id="O8oyMUkmjf1qL9M-a0hE-44" value="" style="ellipse;whiteSpace=wrap;html=1;aspect=fixed;fillColor=#ffe6cc;strokeColor=#d79b00;" parent="1" vertex="1">
          <mxGeometry x="700" y="390" width="10" height="10" as="geometry" />
        </mxCell>
        <mxCell id="O8oyMUkmjf1qL9M-a0hE-45" value="" style="ellipse;whiteSpace=wrap;html=1;aspect=fixed;fillColor=#ffe6cc;strokeColor=#d79b00;" parent="1" vertex="1">
          <mxGeometry x="760" y="380" width="10" height="10" as="geometry" />
        </mxCell>
        <mxCell id="O8oyMUkmjf1qL9M-a0hE-46" value="" style="ellipse;whiteSpace=wrap;html=1;aspect=fixed;fillColor=#ffe6cc;strokeColor=#d79b00;" parent="1" vertex="1">
          <mxGeometry x="760" y="400" width="10" height="10" as="geometry" />
        </mxCell>
        <mxCell id="O8oyMUkmjf1qL9M-a0hE-47" value="" style="ellipse;whiteSpace=wrap;html=1;aspect=fixed;fillColor=#ffe6cc;strokeColor=#d79b00;" parent="1" vertex="1">
          <mxGeometry x="730" y="358" width="10" height="10" as="geometry" />
        </mxCell>
        <mxCell id="O8oyMUkmjf1qL9M-a0hE-48" value="" style="ellipse;whiteSpace=wrap;html=1;aspect=fixed;fillColor=#ffe6cc;strokeColor=#d79b00;" parent="1" vertex="1">
          <mxGeometry x="740" y="370" width="10" height="10" as="geometry" />
        </mxCell>
        <mxCell id="O8oyMUkmjf1qL9M-a0hE-49" value="" style="ellipse;whiteSpace=wrap;html=1;aspect=fixed;fillColor=#ffe6cc;strokeColor=#d79b00;" parent="1" vertex="1">
          <mxGeometry x="715" y="410" width="10" height="10" as="geometry" />
        </mxCell>
        <mxCell id="O8oyMUkmjf1qL9M-a0hE-50" value="" style="ellipse;whiteSpace=wrap;html=1;aspect=fixed;fillColor=#ffe6cc;strokeColor=#d79b00;" parent="1" vertex="1">
          <mxGeometry x="740" y="422" width="10" height="10" as="geometry" />
        </mxCell>
        <mxCell id="O8oyMUkmjf1qL9M-a0hE-51" value="" style="ellipse;whiteSpace=wrap;html=1;aspect=fixed;fillColor=#ffe6cc;strokeColor=#d79b00;" parent="1" vertex="1">
          <mxGeometry x="700" y="414" width="10" height="10" as="geometry" />
        </mxCell>
        <mxCell id="O8oyMUkmjf1qL9M-a0hE-52" value="" style="ellipse;whiteSpace=wrap;html=1;aspect=fixed;fillColor=#ffe6cc;strokeColor=#d79b00;" parent="1" vertex="1">
          <mxGeometry x="710" y="358" width="10" height="10" as="geometry" />
        </mxCell>
        <mxCell id="O8oyMUkmjf1qL9M-a0hE-55" value="" style="endArrow=none;html=1;rounded=0;" parent="1" edge="1">
          <mxGeometry width="50" height="50" relative="1" as="geometry">
            <mxPoint x="640" y="360" as="sourcePoint" />
            <mxPoint x="800" y="240" as="targetPoint" />
          </mxGeometry>
        </mxCell>
        <mxCell id="O8oyMUkmjf1qL9M-a0hE-56" value="" style="endArrow=none;html=1;rounded=0;" parent="1" edge="1">
          <mxGeometry width="50" height="50" relative="1" as="geometry">
            <mxPoint x="639.8" y="360" as="sourcePoint" />
            <mxPoint x="640" y="480" as="targetPoint" />
          </mxGeometry>
        </mxCell>
        <mxCell id="O8oyMUkmjf1qL9M-a0hE-57" value="" style="endArrow=none;html=1;rounded=0;" parent="1" edge="1">
          <mxGeometry width="50" height="50" relative="1" as="geometry">
            <mxPoint x="480" y="240" as="sourcePoint" />
            <mxPoint x="640" y="360" as="targetPoint" />
          </mxGeometry>
        </mxCell>
        <mxCell id="O8oyMUkmjf1qL9M-a0hE-58" value="" style="ellipse;whiteSpace=wrap;html=1;aspect=fixed;fillColor=#ffe6cc;strokeColor=#d79b00;" parent="1" vertex="1">
          <mxGeometry x="710" y="320" width="10" height="10" as="geometry" />
        </mxCell>
        <mxCell id="O8oyMUkmjf1qL9M-a0hE-59" value="" style="ellipse;whiteSpace=wrap;html=1;aspect=fixed;fillColor=#ffe6cc;strokeColor=#d79b00;" parent="1" vertex="1">
          <mxGeometry x="655" y="393" width="10" height="10" as="geometry" />
        </mxCell>
        <mxCell id="O8oyMUkmjf1qL9M-a0hE-61" value="" style="ellipse;whiteSpace=wrap;html=1;aspect=fixed;fillColor=#dae8fc;strokeColor=#6c8ebf;" parent="1" vertex="1">
          <mxGeometry x="625" y="363" width="10" height="10" as="geometry" />
        </mxCell>
        <mxCell id="O8oyMUkmjf1qL9M-a0hE-62" value="" style="ellipse;whiteSpace=wrap;html=1;aspect=fixed;fillColor=#dae8fc;strokeColor=#6c8ebf;" parent="1" vertex="1">
          <mxGeometry x="605" y="422" width="10" height="10" as="geometry" />
        </mxCell>
        <mxCell id="O8oyMUkmjf1qL9M-a0hE-63" value="" style="ellipse;whiteSpace=wrap;html=1;aspect=fixed;fillColor=#dae8fc;strokeColor=#6c8ebf;" parent="1" vertex="1">
          <mxGeometry x="555" y="320" width="10" height="10" as="geometry" />
        </mxCell>
        <mxCell id="O8oyMUkmjf1qL9M-a0hE-65" value="" style="ellipse;whiteSpace=wrap;html=1;aspect=fixed;fillColor=#d5e8d4;strokeColor=#82b366;" parent="1" vertex="1">
          <mxGeometry x="740" y="260" width="10" height="10" as="geometry" />
        </mxCell>
        <mxCell id="O8oyMUkmjf1qL9M-a0hE-64" value="" style="ellipse;whiteSpace=wrap;html=1;aspect=fixed;fillColor=#d5e8d4;strokeColor=#82b366;" parent="1" vertex="1">
          <mxGeometry x="555" y="270" width="10" height="10" as="geometry" />
        </mxCell>
        <mxCell id="O8oyMUkmjf1qL9M-a0hE-66" value="" style="ellipse;whiteSpace=wrap;html=1;aspect=fixed;fillColor=#d5e8d4;strokeColor=#82b366;" parent="1" vertex="1">
          <mxGeometry x="645" y="330" width="10" height="10" as="geometry" />
        </mxCell>
        <mxCell id="O8oyMUkmjf1qL9M-a0hE-67" value="" style="ellipse;whiteSpace=wrap;html=1;aspect=fixed;fillColor=#ffe6cc;strokeColor=#d79b00;" parent="1" vertex="1">
          <mxGeometry x="760" y="450" width="10" height="10" as="geometry" />
        </mxCell>
        <mxCell id="vNLIBIN-TZ7BRK8E6ICu-2" value="" style="endArrow=classic;html=1;rounded=0;strokeWidth=0.5;endFill=1;endSize=4;exitX=0.5;exitY=0.5;exitDx=0;exitDy=0;exitPerimeter=0;" edge="1" parent="1" source="vNLIBIN-TZ7BRK8E6ICu-10">
          <mxGeometry width="50" height="50" relative="1" as="geometry">
            <mxPoint x="635" y="265" as="sourcePoint" />
            <mxPoint x="610" y="275" as="targetPoint" />
          </mxGeometry>
        </mxCell>
        <mxCell id="vNLIBIN-TZ7BRK8E6ICu-3" value="" style="endArrow=classic;html=1;rounded=0;strokeWidth=0.5;endFill=1;endSize=4;exitX=0.5;exitY=0.5;exitDx=0;exitDy=0;exitPerimeter=0;" edge="1" parent="1" source="vNLIBIN-TZ7BRK8E6ICu-10">
          <mxGeometry width="50" height="50" relative="1" as="geometry">
            <mxPoint x="635" y="265" as="sourcePoint" />
            <mxPoint x="630" y="290" as="targetPoint" />
          </mxGeometry>
        </mxCell>
        <mxCell id="vNLIBIN-TZ7BRK8E6ICu-5" value="" style="endArrow=classic;html=1;rounded=0;strokeWidth=0.5;endFill=1;endSize=4;exitX=0.5;exitY=0.5;exitDx=0;exitDy=0;exitPerimeter=0;" edge="1" parent="1" source="vNLIBIN-TZ7BRK8E6ICu-10">
          <mxGeometry width="50" height="50" relative="1" as="geometry">
            <mxPoint x="635" y="265" as="sourcePoint" />
            <mxPoint x="620" y="235" as="targetPoint" />
          </mxGeometry>
        </mxCell>
        <mxCell id="vNLIBIN-TZ7BRK8E6ICu-7" value="" style="endArrow=classic;html=1;rounded=0;strokeWidth=0.5;endFill=1;endSize=4;exitX=0.5;exitY=0.5;exitDx=0;exitDy=0;exitPerimeter=0;" edge="1" parent="1" source="vNLIBIN-TZ7BRK8E6ICu-10">
          <mxGeometry width="50" height="50" relative="1" as="geometry">
            <mxPoint x="635" y="265" as="sourcePoint" />
            <mxPoint x="660" y="265" as="targetPoint" />
          </mxGeometry>
        </mxCell>
        <mxCell id="vNLIBIN-TZ7BRK8E6ICu-15" value="" style="endArrow=classic;html=1;rounded=0;strokeWidth=0.5;endFill=1;endSize=4;exitX=0.5;exitY=0.5;exitDx=0;exitDy=0;exitPerimeter=0;" edge="1" parent="1" source="vNLIBIN-TZ7BRK8E6ICu-10">
          <mxGeometry width="50" height="50" relative="1" as="geometry">
            <mxPoint x="645" y="275" as="sourcePoint" />
            <mxPoint x="560" y="275" as="targetPoint" />
          </mxGeometry>
        </mxCell>
        <mxCell id="vNLIBIN-TZ7BRK8E6ICu-10" value="" style="verticalLabelPosition=bottom;verticalAlign=top;html=1;shape=mxgraph.basic.4_point_star_2;dx=1;rotation=45;fillColor=#d5e8d4;strokeColor=#82b366;strokeWidth=2;" vertex="1" parent="1">
          <mxGeometry x="630" y="260" width="10" height="10" as="geometry" />
        </mxCell>
        <mxCell id="vNLIBIN-TZ7BRK8E6ICu-18" value="" style="endArrow=classic;html=1;rounded=0;strokeWidth=0.5;endFill=1;endSize=4;exitX=0.5;exitY=0.5;exitDx=0;exitDy=0;exitPerimeter=0;" edge="1" parent="1" source="vNLIBIN-TZ7BRK8E6ICu-13">
          <mxGeometry width="50" height="50" relative="1" as="geometry">
            <mxPoint x="527.5" y="414" as="sourcePoint" />
            <mxPoint x="510" y="395" as="targetPoint" />
          </mxGeometry>
        </mxCell>
        <mxCell id="vNLIBIN-TZ7BRK8E6ICu-19" value="" style="endArrow=classic;html=1;rounded=0;strokeWidth=0.5;endFill=1;endSize=4;exitX=0.5;exitY=0.5;exitDx=0;exitDy=0;exitPerimeter=0;" edge="1" parent="1" source="vNLIBIN-TZ7BRK8E6ICu-13">
          <mxGeometry width="50" height="50" relative="1" as="geometry">
            <mxPoint x="545" y="405" as="sourcePoint" />
            <mxPoint x="580" y="405" as="targetPoint" />
          </mxGeometry>
        </mxCell>
        <mxCell id="vNLIBIN-TZ7BRK8E6ICu-20" value="" style="endArrow=classic;html=1;rounded=0;strokeWidth=0.5;endFill=1;endSize=4;exitX=0.5;exitY=0.5;exitDx=0;exitDy=0;exitPerimeter=0;" edge="1" parent="1" source="vNLIBIN-TZ7BRK8E6ICu-13">
          <mxGeometry width="50" height="50" relative="1" as="geometry">
            <mxPoint x="545" y="405" as="sourcePoint" />
            <mxPoint x="540" y="430" as="targetPoint" />
          </mxGeometry>
        </mxCell>
        <mxCell id="vNLIBIN-TZ7BRK8E6ICu-21" value="" style="endArrow=classic;html=1;rounded=0;strokeWidth=0.5;endFill=1;endSize=4;exitX=0.5;exitY=0.5;exitDx=0;exitDy=0;exitPerimeter=0;" edge="1" parent="1" source="vNLIBIN-TZ7BRK8E6ICu-13">
          <mxGeometry width="50" height="50" relative="1" as="geometry">
            <mxPoint x="545" y="405" as="sourcePoint" />
            <mxPoint x="540" y="355" as="targetPoint" />
          </mxGeometry>
        </mxCell>
        <mxCell id="vNLIBIN-TZ7BRK8E6ICu-22" value="" style="endArrow=classic;html=1;rounded=0;strokeWidth=0.5;endFill=1;endSize=4;exitX=0.5;exitY=0.5;exitDx=0;exitDy=0;exitPerimeter=0;" edge="1" parent="1" source="vNLIBIN-TZ7BRK8E6ICu-13">
          <mxGeometry width="50" height="50" relative="1" as="geometry">
            <mxPoint x="545" y="405" as="sourcePoint" />
            <mxPoint x="530" y="375" as="targetPoint" />
          </mxGeometry>
        </mxCell>
        <mxCell id="vNLIBIN-TZ7BRK8E6ICu-13" value="" style="verticalLabelPosition=bottom;verticalAlign=top;html=1;shape=mxgraph.basic.4_point_star_2;dx=1;rotation=45;fillColor=#dae8fc;strokeColor=#6c8ebf;strokeWidth=2;" vertex="1" parent="1">
          <mxGeometry x="530" y="390" width="10" height="10" as="geometry" />
        </mxCell>
        <mxCell id="vNLIBIN-TZ7BRK8E6ICu-23" value="" style="endArrow=classic;html=1;rounded=0;strokeWidth=0.5;endFill=1;endSize=4;exitX=0.5;exitY=0.5;exitDx=0;exitDy=0;exitPerimeter=0;" edge="1" parent="1" source="vNLIBIN-TZ7BRK8E6ICu-14">
          <mxGeometry width="50" height="50" relative="1" as="geometry">
            <mxPoint x="725" y="383" as="sourcePoint" />
            <mxPoint x="725" y="375" as="targetPoint" />
          </mxGeometry>
        </mxCell>
        <mxCell id="vNLIBIN-TZ7BRK8E6ICu-24" value="" style="endArrow=classic;html=1;rounded=0;strokeWidth=0.5;endFill=1;endSize=4;exitX=0.5;exitY=0.5;exitDx=0;exitDy=0;exitPerimeter=0;" edge="1" parent="1" source="vNLIBIN-TZ7BRK8E6ICu-14">
          <mxGeometry width="50" height="50" relative="1" as="geometry">
            <mxPoint x="735" y="405" as="sourcePoint" />
            <mxPoint x="720" y="415" as="targetPoint" />
          </mxGeometry>
        </mxCell>
        <mxCell id="vNLIBIN-TZ7BRK8E6ICu-25" value="" style="endArrow=classic;html=1;rounded=0;strokeWidth=0.5;endFill=1;endSize=4;exitX=0.5;exitY=0.5;exitDx=0;exitDy=0;exitPerimeter=0;" edge="1" parent="1" source="vNLIBIN-TZ7BRK8E6ICu-14">
          <mxGeometry width="50" height="50" relative="1" as="geometry">
            <mxPoint x="735" y="405" as="sourcePoint" />
            <mxPoint x="765" y="385" as="targetPoint" />
          </mxGeometry>
        </mxCell>
        <mxCell id="vNLIBIN-TZ7BRK8E6ICu-26" value="" style="endArrow=classic;html=1;rounded=0;strokeWidth=0.5;endFill=1;endSize=4;exitX=0.5;exitY=0.5;exitDx=0;exitDy=0;exitPerimeter=0;" edge="1" parent="1" source="vNLIBIN-TZ7BRK8E6ICu-14">
          <mxGeometry width="50" height="50" relative="1" as="geometry">
            <mxPoint x="735" y="405" as="sourcePoint" />
            <mxPoint x="705" y="395" as="targetPoint" />
          </mxGeometry>
        </mxCell>
        <mxCell id="vNLIBIN-TZ7BRK8E6ICu-27" value="" style="endArrow=classic;html=1;rounded=0;strokeWidth=0.5;endFill=1;endSize=4;exitX=0.5;exitY=0.5;exitDx=0;exitDy=0;exitPerimeter=0;" edge="1" parent="1" source="vNLIBIN-TZ7BRK8E6ICu-14">
          <mxGeometry width="50" height="50" relative="1" as="geometry">
            <mxPoint x="735" y="405" as="sourcePoint" />
            <mxPoint x="765" y="405" as="targetPoint" />
          </mxGeometry>
        </mxCell>
        <mxCell id="vNLIBIN-TZ7BRK8E6ICu-14" value="" style="verticalLabelPosition=bottom;verticalAlign=top;html=1;shape=mxgraph.basic.4_point_star_2;dx=1;rotation=45;fillColor=#ffe6cc;strokeColor=#d79b00;strokeWidth=2;" vertex="1" parent="1">
          <mxGeometry x="720" y="390" width="10" height="10" as="geometry" />
        </mxCell>
      </root>
    </mxGraphModel>
  </diagram>
</mxfile>
